<mxfile host="app.diagrams.net" modified="2023-11-14T02:21:04.936Z" agent="Mozilla/5.0 (Windows NT 10.0; Win64; x64) AppleWebKit/537.36 (KHTML, like Gecko) Chrome/119.0.0.0 Safari/537.36 Edg/119.0.0.0" etag="TGLZlVv9uLzoQZDxdmOR" version="22.1.0" type="github">
  <diagram name="第 1 页" id="NwaaKly-gUy1kSCu0fLw">
    <mxGraphModel dx="5154" dy="3086" grid="1" gridSize="10" guides="1" tooltips="1" connect="1" arrows="1" fold="1" page="1" pageScale="1" pageWidth="827" pageHeight="1169" math="0" shadow="0">
      <root>
        <mxCell id="0" />
        <mxCell id="1" parent="0" />
        <mxCell id="Q8sorjnZ1c8knYW-6Pqp-2" value="" style="edgeStyle=orthogonalEdgeStyle;rounded=0;orthogonalLoop=1;jettySize=auto;html=1;" parent="1" source="uCQr6F4QkE1QHf579zd8-1" target="Q8sorjnZ1c8knYW-6Pqp-1" edge="1">
          <mxGeometry relative="1" as="geometry" />
        </mxCell>
        <mxCell id="uCQr6F4QkE1QHf579zd8-1" value="upstream send&lt;br&gt;（发送消息）" style="rounded=0;whiteSpace=wrap;html=1;" parent="1" vertex="1">
          <mxGeometry x="-1390" y="80" width="120" height="60" as="geometry" />
        </mxCell>
        <mxCell id="Q8sorjnZ1c8knYW-6Pqp-4" value="" style="edgeStyle=orthogonalEdgeStyle;rounded=0;orthogonalLoop=1;jettySize=auto;html=1;" parent="1" source="Q8sorjnZ1c8knYW-6Pqp-1" target="Q8sorjnZ1c8knYW-6Pqp-3" edge="1">
          <mxGeometry relative="1" as="geometry" />
        </mxCell>
        <mxCell id="Q8sorjnZ1c8knYW-6Pqp-1" value="judge message length" style="whiteSpace=wrap;html=1;rounded=0;" parent="1" vertex="1">
          <mxGeometry x="-1390" y="180" width="120" height="60" as="geometry" />
        </mxCell>
        <mxCell id="Q8sorjnZ1c8knYW-6Pqp-3" value="judge group" style="whiteSpace=wrap;html=1;rounded=0;" parent="1" vertex="1">
          <mxGeometry x="-1390" y="280" width="120" height="60" as="geometry" />
        </mxCell>
        <mxCell id="Q8sorjnZ1c8knYW-6Pqp-9" value="G2CServer.MsgChan" style="html=1;shadow=0;dashed=0;align=center;verticalAlign=middle;shape=mxgraph.arrows2.arrow;dy=0.6;dx=40;notch=0;" parent="1" vertex="1">
          <mxGeometry x="-663" y="280" width="250" height="70" as="geometry" />
        </mxCell>
        <mxCell id="Q8sorjnZ1c8knYW-6Pqp-10" style="edgeStyle=orthogonalEdgeStyle;rounded=0;orthogonalLoop=1;jettySize=auto;html=1;entryX=0;entryY=0.5;entryDx=0;entryDy=0;entryPerimeter=0;" parent="1" source="Q8sorjnZ1c8knYW-6Pqp-3" target="Q8sorjnZ1c8knYW-6Pqp-9" edge="1">
          <mxGeometry relative="1" as="geometry" />
        </mxCell>
        <mxCell id="Q8sorjnZ1c8knYW-6Pqp-11" value="写入管道" style="edgeLabel;html=1;align=center;verticalAlign=middle;resizable=0;points=[];" parent="Q8sorjnZ1c8knYW-6Pqp-10" vertex="1" connectable="0">
          <mxGeometry x="-0.0182" relative="1" as="geometry">
            <mxPoint as="offset" />
          </mxGeometry>
        </mxCell>
        <mxCell id="Q8sorjnZ1c8knYW-6Pqp-12" value="G2CServer.ExitChan" style="html=1;shadow=0;dashed=0;align=center;verticalAlign=middle;shape=mxgraph.arrows2.arrow;dy=0.6;dx=40;notch=0;" parent="1" vertex="1">
          <mxGeometry x="-663" y="620" width="250" height="70" as="geometry" />
        </mxCell>
        <mxCell id="Q8sorjnZ1c8knYW-6Pqp-13" value="G2CServer.RetryMsgChan" style="html=1;shadow=0;dashed=0;align=center;verticalAlign=middle;shape=mxgraph.arrows2.arrow;dy=0.6;dx=40;notch=0;" parent="1" vertex="1">
          <mxGeometry x="-663" y="450" width="250" height="70" as="geometry" />
        </mxCell>
        <mxCell id="Q8sorjnZ1c8knYW-6Pqp-16" value="" style="edgeStyle=orthogonalEdgeStyle;rounded=0;orthogonalLoop=1;jettySize=auto;html=1;entryX=0.5;entryY=0;entryDx=0;entryDy=0;" parent="1" source="Q8sorjnZ1c8knYW-6Pqp-14" target="Q8sorjnZ1c8knYW-6Pqp-38" edge="1">
          <mxGeometry relative="1" as="geometry">
            <mxPoint x="1005" y="-695" as="targetPoint" />
          </mxGeometry>
        </mxCell>
        <mxCell id="Q8sorjnZ1c8knYW-6Pqp-14" value="C2CProcess&lt;br&gt;（用户间消息处理）" style="rounded=0;whiteSpace=wrap;html=1;" parent="1" vertex="1">
          <mxGeometry x="965" y="-870" width="120" height="60" as="geometry" />
        </mxCell>
        <mxCell id="Q8sorjnZ1c8knYW-6Pqp-21" style="edgeStyle=orthogonalEdgeStyle;rounded=0;orthogonalLoop=1;jettySize=auto;html=1;entryX=1;entryY=0.5;entryDx=0;entryDy=0;exitX=1;exitY=0.5;exitDx=0;exitDy=0;" parent="1" source="Q8sorjnZ1c8knYW-6Pqp-38" target="Q8sorjnZ1c8knYW-6Pqp-14" edge="1">
          <mxGeometry relative="1" as="geometry">
            <mxPoint x="1135" y="-665" as="sourcePoint" />
          </mxGeometry>
        </mxCell>
        <mxCell id="Q8sorjnZ1c8knYW-6Pqp-22" value="C2CProcessNumber" style="edgeLabel;html=1;align=center;verticalAlign=middle;resizable=0;points=[];" parent="Q8sorjnZ1c8knYW-6Pqp-21" vertex="1" connectable="0">
          <mxGeometry x="0.0222" y="-1" relative="1" as="geometry">
            <mxPoint as="offset" />
          </mxGeometry>
        </mxCell>
        <mxCell id="Q8sorjnZ1c8knYW-6Pqp-28" value="" style="edgeStyle=orthogonalEdgeStyle;rounded=0;orthogonalLoop=1;jettySize=auto;html=1;exitX=0;exitY=0.5;exitDx=0;exitDy=0;" parent="1" source="Q8sorjnZ1c8knYW-6Pqp-38" target="Q8sorjnZ1c8knYW-6Pqp-27" edge="1">
          <mxGeometry relative="1" as="geometry">
            <mxPoint x="910" y="-665" as="sourcePoint" />
          </mxGeometry>
        </mxCell>
        <mxCell id="Q8sorjnZ1c8knYW-6Pqp-39" value="go func" style="edgeLabel;html=1;align=center;verticalAlign=middle;resizable=0;points=[];" parent="Q8sorjnZ1c8knYW-6Pqp-28" vertex="1" connectable="0">
          <mxGeometry x="-0.3106" y="2" relative="1" as="geometry">
            <mxPoint as="offset" />
          </mxGeometry>
        </mxCell>
        <mxCell id="Q8sorjnZ1c8knYW-6Pqp-37" value="" style="edgeStyle=orthogonalEdgeStyle;rounded=0;orthogonalLoop=1;jettySize=auto;html=1;entryX=0.5;entryY=0;entryDx=0;entryDy=0;" parent="1" source="Q8sorjnZ1c8knYW-6Pqp-27" target="7e2wv72_QCcMcx34yIYg-12" edge="1">
          <mxGeometry relative="1" as="geometry" />
        </mxCell>
        <mxCell id="Q8sorjnZ1c8knYW-6Pqp-41" value="case m := &amp;lt;-G2CServer.MsgChan" style="edgeLabel;html=1;align=center;verticalAlign=middle;resizable=0;points=[];" parent="Q8sorjnZ1c8knYW-6Pqp-37" vertex="1" connectable="0">
          <mxGeometry x="-0.0655" relative="1" as="geometry">
            <mxPoint y="24" as="offset" />
          </mxGeometry>
        </mxCell>
        <mxCell id="7e2wv72_QCcMcx34yIYg-9" style="edgeStyle=orthogonalEdgeStyle;rounded=0;orthogonalLoop=1;jettySize=auto;html=1;exitX=0.5;exitY=1;exitDx=0;exitDy=0;" edge="1" parent="1" source="Q8sorjnZ1c8knYW-6Pqp-27" target="7e2wv72_QCcMcx34yIYg-15">
          <mxGeometry relative="1" as="geometry" />
        </mxCell>
        <mxCell id="7e2wv72_QCcMcx34yIYg-11" value="case m := &amp;lt;-G2CServer.RetryMsgChan" style="edgeLabel;html=1;align=center;verticalAlign=middle;resizable=0;points=[];" vertex="1" connectable="0" parent="7e2wv72_QCcMcx34yIYg-9">
          <mxGeometry x="0.0005" y="1" relative="1" as="geometry">
            <mxPoint as="offset" />
          </mxGeometry>
        </mxCell>
        <mxCell id="7e2wv72_QCcMcx34yIYg-37" style="edgeStyle=orthogonalEdgeStyle;rounded=0;orthogonalLoop=1;jettySize=auto;html=1;exitX=1;exitY=0.5;exitDx=0;exitDy=0;entryX=0;entryY=0.5;entryDx=0;entryDy=0;" edge="1" parent="1" source="Q8sorjnZ1c8knYW-6Pqp-27" target="7e2wv72_QCcMcx34yIYg-40">
          <mxGeometry relative="1" as="geometry">
            <mxPoint x="1450" y="-430" as="targetPoint" />
          </mxGeometry>
        </mxCell>
        <mxCell id="7e2wv72_QCcMcx34yIYg-39" value="case m := &amp;lt;-G2CServer.ExitChan" style="edgeLabel;html=1;align=center;verticalAlign=middle;resizable=0;points=[];" vertex="1" connectable="0" parent="7e2wv72_QCcMcx34yIYg-37">
          <mxGeometry x="0.0507" relative="1" as="geometry">
            <mxPoint x="-1" as="offset" />
          </mxGeometry>
        </mxCell>
        <mxCell id="Q8sorjnZ1c8knYW-6Pqp-27" value="select" style="rhombus;whiteSpace=wrap;html=1;rounded=0;" parent="1" vertex="1">
          <mxGeometry x="780" y="-565" width="130" height="80" as="geometry" />
        </mxCell>
        <mxCell id="Q8sorjnZ1c8knYW-6Pqp-43" value="" style="edgeStyle=orthogonalEdgeStyle;rounded=0;orthogonalLoop=1;jettySize=auto;html=1;" parent="1" source="Q8sorjnZ1c8knYW-6Pqp-36" target="Q8sorjnZ1c8knYW-6Pqp-42" edge="1">
          <mxGeometry relative="1" as="geometry" />
        </mxCell>
        <mxCell id="Q8sorjnZ1c8knYW-6Pqp-36" value="Idempotent processing&lt;br&gt;（幂等性处理）" style="whiteSpace=wrap;html=1;rounded=0;" parent="1" vertex="1">
          <mxGeometry x="785" y="330" width="120" height="60" as="geometry" />
        </mxCell>
        <mxCell id="Q8sorjnZ1c8knYW-6Pqp-38" value="judge C2CProcessNumber" style="rhombus;whiteSpace=wrap;html=1;" parent="1" vertex="1">
          <mxGeometry x="930" y="-760" width="190" height="70" as="geometry" />
        </mxCell>
        <mxCell id="Q8sorjnZ1c8knYW-6Pqp-45" value="" style="edgeStyle=orthogonalEdgeStyle;rounded=0;orthogonalLoop=1;jettySize=auto;html=1;" parent="1" source="Q8sorjnZ1c8knYW-6Pqp-42" target="Q8sorjnZ1c8knYW-6Pqp-44" edge="1">
          <mxGeometry relative="1" as="geometry" />
        </mxCell>
        <mxCell id="Q8sorjnZ1c8knYW-6Pqp-42" value="message insert to mysql" style="whiteSpace=wrap;html=1;rounded=0;" parent="1" vertex="1">
          <mxGeometry x="785" y="440" width="120" height="60" as="geometry" />
        </mxCell>
        <mxCell id="Q8sorjnZ1c8knYW-6Pqp-51" value="" style="edgeStyle=orthogonalEdgeStyle;rounded=0;orthogonalLoop=1;jettySize=auto;html=1;" parent="1" source="Q8sorjnZ1c8knYW-6Pqp-44" target="Q8sorjnZ1c8knYW-6Pqp-50" edge="1">
          <mxGeometry relative="1" as="geometry" />
        </mxCell>
        <mxCell id="Q8sorjnZ1c8knYW-6Pqp-44" value="messageid insert to redis" style="whiteSpace=wrap;html=1;rounded=0;" parent="1" vertex="1">
          <mxGeometry x="785" y="580" width="120" height="60" as="geometry" />
        </mxCell>
        <mxCell id="Q8sorjnZ1c8knYW-6Pqp-46" value="mysql-message_x" style="image;aspect=fixed;perimeter=ellipsePerimeter;html=1;align=center;shadow=0;dashed=0;spacingTop=3;image=img/lib/active_directory/databases.svg;" parent="1" vertex="1">
          <mxGeometry x="2460" y="1470" width="255.1" height="250" as="geometry" />
        </mxCell>
        <mxCell id="Q8sorjnZ1c8knYW-6Pqp-47" value="" style="endArrow=classic;html=1;rounded=0;entryX=0;entryY=0.5;entryDx=0;entryDy=0;exitX=1;exitY=0.5;exitDx=0;exitDy=0;" parent="1" source="Q8sorjnZ1c8knYW-6Pqp-42" target="Q8sorjnZ1c8knYW-6Pqp-46" edge="1">
          <mxGeometry width="50" height="50" relative="1" as="geometry">
            <mxPoint x="700" y="720" as="sourcePoint" />
            <mxPoint x="750" y="670" as="targetPoint" />
          </mxGeometry>
        </mxCell>
        <mxCell id="Q8sorjnZ1c8knYW-6Pqp-52" value="add" style="edgeLabel;html=1;align=center;verticalAlign=middle;resizable=0;points=[];" parent="Q8sorjnZ1c8knYW-6Pqp-47" vertex="1" connectable="0">
          <mxGeometry x="0.1063" y="2" relative="1" as="geometry">
            <mxPoint as="offset" />
          </mxGeometry>
        </mxCell>
        <mxCell id="Q8sorjnZ1c8knYW-6Pqp-48" value="redis-group-latest-messageid" style="image;aspect=fixed;perimeter=ellipsePerimeter;html=1;align=center;shadow=0;dashed=0;spacingTop=3;image=img/lib/active_directory/databases.svg;" parent="1" vertex="1">
          <mxGeometry x="2460" y="1820" width="255.1" height="250" as="geometry" />
        </mxCell>
        <mxCell id="Q8sorjnZ1c8knYW-6Pqp-49" value="" style="endArrow=classic;html=1;rounded=0;entryX=0.25;entryY=0;entryDx=0;entryDy=0;exitX=1;exitY=0.5;exitDx=0;exitDy=0;" parent="1" source="Q8sorjnZ1c8knYW-6Pqp-44" target="Q8sorjnZ1c8knYW-6Pqp-48" edge="1">
          <mxGeometry width="50" height="50" relative="1" as="geometry">
            <mxPoint x="1160" y="1040" as="sourcePoint" />
            <mxPoint x="1210" y="990" as="targetPoint" />
          </mxGeometry>
        </mxCell>
        <mxCell id="Q8sorjnZ1c8knYW-6Pqp-53" value="add" style="edgeLabel;html=1;align=center;verticalAlign=middle;resizable=0;points=[];" parent="Q8sorjnZ1c8knYW-6Pqp-49" vertex="1" connectable="0">
          <mxGeometry x="-0.1528" y="1" relative="1" as="geometry">
            <mxPoint as="offset" />
          </mxGeometry>
        </mxCell>
        <mxCell id="Q8sorjnZ1c8knYW-6Pqp-58" value="" style="edgeStyle=orthogonalEdgeStyle;rounded=0;orthogonalLoop=1;jettySize=auto;html=1;" parent="1" source="Q8sorjnZ1c8knYW-6Pqp-50" target="Q8sorjnZ1c8knYW-6Pqp-57" edge="1">
          <mxGeometry relative="1" as="geometry" />
        </mxCell>
        <mxCell id="Q8sorjnZ1c8knYW-6Pqp-50" value="messagebody insert to redis" style="whiteSpace=wrap;html=1;rounded=0;" parent="1" vertex="1">
          <mxGeometry x="785" y="700" width="120" height="60" as="geometry" />
        </mxCell>
        <mxCell id="Q8sorjnZ1c8knYW-6Pqp-54" value="redis-group-latest-messagebody" style="image;aspect=fixed;perimeter=ellipsePerimeter;html=1;align=center;shadow=0;dashed=0;spacingTop=3;image=img/lib/active_directory/databases.svg;" parent="1" vertex="1">
          <mxGeometry x="2460" y="2200" width="255.1" height="250" as="geometry" />
        </mxCell>
        <mxCell id="Q8sorjnZ1c8knYW-6Pqp-55" value="" style="endArrow=classic;html=1;rounded=0;entryX=0.25;entryY=0;entryDx=0;entryDy=0;exitX=1;exitY=0.5;exitDx=0;exitDy=0;" parent="1" source="Q8sorjnZ1c8knYW-6Pqp-50" target="Q8sorjnZ1c8knYW-6Pqp-54" edge="1">
          <mxGeometry width="50" height="50" relative="1" as="geometry">
            <mxPoint x="980" y="1150" as="sourcePoint" />
            <mxPoint x="1030" y="1100" as="targetPoint" />
          </mxGeometry>
        </mxCell>
        <mxCell id="Q8sorjnZ1c8knYW-6Pqp-56" value="add" style="edgeLabel;html=1;align=center;verticalAlign=middle;resizable=0;points=[];" parent="Q8sorjnZ1c8knYW-6Pqp-55" vertex="1" connectable="0">
          <mxGeometry x="-0.426" y="1" relative="1" as="geometry">
            <mxPoint as="offset" />
          </mxGeometry>
        </mxCell>
        <mxCell id="Q8sorjnZ1c8knYW-6Pqp-60" value="" style="edgeStyle=orthogonalEdgeStyle;rounded=0;orthogonalLoop=1;jettySize=auto;html=1;" parent="1" source="Q8sorjnZ1c8knYW-6Pqp-57" target="Q8sorjnZ1c8knYW-6Pqp-59" edge="1">
          <mxGeometry relative="1" as="geometry" />
        </mxCell>
        <mxCell id="Q8sorjnZ1c8knYW-6Pqp-57" value="add to all members&#39; inbox" style="whiteSpace=wrap;html=1;rounded=0;" parent="1" vertex="1">
          <mxGeometry x="785" y="820" width="120" height="60" as="geometry" />
        </mxCell>
        <mxCell id="Q8sorjnZ1c8knYW-6Pqp-62" value="" style="edgeStyle=orthogonalEdgeStyle;rounded=0;orthogonalLoop=1;jettySize=auto;html=1;" parent="1" source="Q8sorjnZ1c8knYW-6Pqp-59" target="Q8sorjnZ1c8knYW-6Pqp-61" edge="1">
          <mxGeometry relative="1" as="geometry" />
        </mxCell>
        <mxCell id="Q8sorjnZ1c8knYW-6Pqp-59" value="get online members&lt;br&gt;downstream connector" style="whiteSpace=wrap;html=1;rounded=0;" parent="1" vertex="1">
          <mxGeometry x="785" y="950" width="120" height="60" as="geometry" />
        </mxCell>
        <mxCell id="Q8sorjnZ1c8knYW-6Pqp-64" value="" style="edgeStyle=orthogonalEdgeStyle;rounded=0;orthogonalLoop=1;jettySize=auto;html=1;" parent="1" source="Q8sorjnZ1c8knYW-6Pqp-61" target="Q8sorjnZ1c8knYW-6Pqp-63" edge="1">
          <mxGeometry relative="1" as="geometry" />
        </mxCell>
        <mxCell id="Q8sorjnZ1c8knYW-6Pqp-61" value="audit the test&lt;br&gt;（检查消息合法性）" style="whiteSpace=wrap;html=1;rounded=0;" parent="1" vertex="1">
          <mxGeometry x="785" y="1080" width="120" height="60" as="geometry" />
        </mxCell>
        <mxCell id="7e2wv72_QCcMcx34yIYg-13" style="edgeStyle=orthogonalEdgeStyle;rounded=0;orthogonalLoop=1;jettySize=auto;html=1;exitX=0;exitY=0.5;exitDx=0;exitDy=0;entryX=0;entryY=0.5;entryDx=0;entryDy=0;entryPerimeter=0;" edge="1" parent="1" source="Q8sorjnZ1c8knYW-6Pqp-63" target="Q8sorjnZ1c8knYW-6Pqp-13">
          <mxGeometry relative="1" as="geometry" />
        </mxCell>
        <mxCell id="7e2wv72_QCcMcx34yIYg-50" value="出错进入重试管道" style="edgeLabel;html=1;align=center;verticalAlign=middle;resizable=0;points=[];" vertex="1" connectable="0" parent="7e2wv72_QCcMcx34yIYg-13">
          <mxGeometry x="-0.8641" y="2" relative="1" as="geometry">
            <mxPoint as="offset" />
          </mxGeometry>
        </mxCell>
        <mxCell id="7e2wv72_QCcMcx34yIYg-44" style="edgeStyle=orthogonalEdgeStyle;rounded=0;orthogonalLoop=1;jettySize=auto;html=1;exitX=0.5;exitY=1;exitDx=0;exitDy=0;entryX=0.5;entryY=0;entryDx=0;entryDy=0;" edge="1" parent="1" source="Q8sorjnZ1c8knYW-6Pqp-63" target="7e2wv72_QCcMcx34yIYg-43">
          <mxGeometry relative="1" as="geometry" />
        </mxCell>
        <mxCell id="Q8sorjnZ1c8knYW-6Pqp-63" value="sync info offline member by wx" style="whiteSpace=wrap;html=1;rounded=0;" parent="1" vertex="1">
          <mxGeometry x="785" y="1220" width="120" height="60" as="geometry" />
        </mxCell>
        <mxCell id="7e2wv72_QCcMcx34yIYg-4" style="edgeStyle=orthogonalEdgeStyle;rounded=0;orthogonalLoop=1;jettySize=auto;html=1;exitX=0.5;exitY=1;exitDx=0;exitDy=0;entryX=0.5;entryY=0;entryDx=0;entryDy=0;" edge="1" parent="1" source="7e2wv72_QCcMcx34yIYg-15" target="7e2wv72_QCcMcx34yIYg-17">
          <mxGeometry relative="1" as="geometry">
            <mxPoint x="1110" y="-180" as="targetPoint" />
          </mxGeometry>
        </mxCell>
        <mxCell id="7e2wv72_QCcMcx34yIYg-16" value="retrytime&amp;gt;5" style="edgeLabel;html=1;align=center;verticalAlign=middle;resizable=0;points=[];" vertex="1" connectable="0" parent="7e2wv72_QCcMcx34yIYg-4">
          <mxGeometry x="-0.3585" relative="1" as="geometry">
            <mxPoint as="offset" />
          </mxGeometry>
        </mxCell>
        <mxCell id="7e2wv72_QCcMcx34yIYg-28" style="edgeStyle=orthogonalEdgeStyle;rounded=0;orthogonalLoop=1;jettySize=auto;html=1;exitX=0.5;exitY=1;exitDx=0;exitDy=0;entryX=0.5;entryY=0;entryDx=0;entryDy=0;" edge="1" parent="1" source="7e2wv72_QCcMcx34yIYg-12" target="7e2wv72_QCcMcx34yIYg-23">
          <mxGeometry relative="1" as="geometry" />
        </mxCell>
        <mxCell id="7e2wv72_QCcMcx34yIYg-12" value="Retrytime++" style="rounded=0;whiteSpace=wrap;html=1;" vertex="1" parent="1">
          <mxGeometry x="785" y="80" width="120" height="60" as="geometry" />
        </mxCell>
        <mxCell id="7e2wv72_QCcMcx34yIYg-25" style="edgeStyle=orthogonalEdgeStyle;rounded=0;orthogonalLoop=1;jettySize=auto;html=1;exitX=0;exitY=0.5;exitDx=0;exitDy=0;entryX=0.5;entryY=0;entryDx=0;entryDy=0;" edge="1" parent="1" source="7e2wv72_QCcMcx34yIYg-15" target="7e2wv72_QCcMcx34yIYg-29">
          <mxGeometry relative="1" as="geometry" />
        </mxCell>
        <mxCell id="7e2wv72_QCcMcx34yIYg-26" value="retrytime&amp;lt;=5" style="edgeLabel;html=1;align=center;verticalAlign=middle;resizable=0;points=[];" vertex="1" connectable="0" parent="7e2wv72_QCcMcx34yIYg-25">
          <mxGeometry x="-0.5256" relative="1" as="geometry">
            <mxPoint as="offset" />
          </mxGeometry>
        </mxCell>
        <mxCell id="7e2wv72_QCcMcx34yIYg-15" value="judge retrytime" style="rhombus;whiteSpace=wrap;html=1;" vertex="1" parent="1">
          <mxGeometry x="1160" y="-370" width="80" height="80" as="geometry" />
        </mxCell>
        <mxCell id="7e2wv72_QCcMcx34yIYg-18" style="edgeStyle=orthogonalEdgeStyle;rounded=0;orthogonalLoop=1;jettySize=auto;html=1;exitX=0.5;exitY=1;exitDx=0;exitDy=0;entryX=0.5;entryY=0;entryDx=0;entryDy=0;" edge="1" parent="1" source="7e2wv72_QCcMcx34yIYg-17" target="7e2wv72_QCcMcx34yIYg-29">
          <mxGeometry relative="1" as="geometry" />
        </mxCell>
        <mxCell id="7e2wv72_QCcMcx34yIYg-17" value="sleep for a while" style="rounded=0;whiteSpace=wrap;html=1;" vertex="1" parent="1">
          <mxGeometry x="1140" y="-230" width="120" height="60" as="geometry" />
        </mxCell>
        <mxCell id="7e2wv72_QCcMcx34yIYg-24" style="edgeStyle=orthogonalEdgeStyle;rounded=0;orthogonalLoop=1;jettySize=auto;html=1;exitX=0.5;exitY=1;exitDx=0;exitDy=0;entryX=0.5;entryY=0;entryDx=0;entryDy=0;" edge="1" parent="1" source="7e2wv72_QCcMcx34yIYg-23" target="Q8sorjnZ1c8knYW-6Pqp-36">
          <mxGeometry relative="1" as="geometry">
            <mxPoint x="846" y="330" as="targetPoint" />
          </mxGeometry>
        </mxCell>
        <mxCell id="7e2wv72_QCcMcx34yIYg-23" value="begin processmessage" style="rounded=0;whiteSpace=wrap;html=1;" vertex="1" parent="1">
          <mxGeometry x="785" y="200" width="120" height="60" as="geometry" />
        </mxCell>
        <mxCell id="7e2wv72_QCcMcx34yIYg-31" value="" style="edgeStyle=orthogonalEdgeStyle;rounded=0;orthogonalLoop=1;jettySize=auto;html=1;" edge="1" parent="1" source="7e2wv72_QCcMcx34yIYg-29" target="7e2wv72_QCcMcx34yIYg-30">
          <mxGeometry relative="1" as="geometry" />
        </mxCell>
        <mxCell id="7e2wv72_QCcMcx34yIYg-29" value="retrytime++" style="rounded=0;whiteSpace=wrap;html=1;" vertex="1" parent="1">
          <mxGeometry x="980" y="-110" width="120" height="60" as="geometry" />
        </mxCell>
        <mxCell id="7e2wv72_QCcMcx34yIYg-33" value="" style="edgeStyle=orthogonalEdgeStyle;rounded=0;orthogonalLoop=1;jettySize=auto;html=1;" edge="1" parent="1" source="7e2wv72_QCcMcx34yIYg-30" target="7e2wv72_QCcMcx34yIYg-32">
          <mxGeometry relative="1" as="geometry" />
        </mxCell>
        <mxCell id="7e2wv72_QCcMcx34yIYg-34" value="retrytime&amp;gt;=10" style="edgeLabel;html=1;align=center;verticalAlign=middle;resizable=0;points=[];" vertex="1" connectable="0" parent="7e2wv72_QCcMcx34yIYg-33">
          <mxGeometry x="-0.1867" relative="1" as="geometry">
            <mxPoint as="offset" />
          </mxGeometry>
        </mxCell>
        <mxCell id="7e2wv72_QCcMcx34yIYg-35" style="edgeStyle=orthogonalEdgeStyle;rounded=0;orthogonalLoop=1;jettySize=auto;html=1;exitX=0;exitY=0.5;exitDx=0;exitDy=0;entryX=1;entryY=0.5;entryDx=0;entryDy=0;" edge="1" parent="1" source="7e2wv72_QCcMcx34yIYg-30" target="7e2wv72_QCcMcx34yIYg-23">
          <mxGeometry relative="1" as="geometry" />
        </mxCell>
        <mxCell id="7e2wv72_QCcMcx34yIYg-36" value="retrytime&amp;lt;10" style="edgeLabel;html=1;align=center;verticalAlign=middle;resizable=0;points=[];" vertex="1" connectable="0" parent="7e2wv72_QCcMcx34yIYg-35">
          <mxGeometry x="0.0314" relative="1" as="geometry">
            <mxPoint as="offset" />
          </mxGeometry>
        </mxCell>
        <mxCell id="7e2wv72_QCcMcx34yIYg-30" value="judge retrytime" style="rhombus;whiteSpace=wrap;html=1;rounded=0;" vertex="1" parent="1">
          <mxGeometry x="1000" y="20" width="80" height="80" as="geometry" />
        </mxCell>
        <mxCell id="7e2wv72_QCcMcx34yIYg-45" style="edgeStyle=orthogonalEdgeStyle;rounded=0;orthogonalLoop=1;jettySize=auto;html=1;exitX=0.5;exitY=1;exitDx=0;exitDy=0;entryX=0.5;entryY=0;entryDx=0;entryDy=0;" edge="1" parent="1" source="7e2wv72_QCcMcx34yIYg-32" target="7e2wv72_QCcMcx34yIYg-43">
          <mxGeometry relative="1" as="geometry" />
        </mxCell>
        <mxCell id="7e2wv72_QCcMcx34yIYg-32" value="消息放弃重试" style="whiteSpace=wrap;html=1;rounded=0;" vertex="1" parent="1">
          <mxGeometry x="980" y="270" width="120" height="60" as="geometry" />
        </mxCell>
        <mxCell id="7e2wv72_QCcMcx34yIYg-40" value="return" style="rounded=0;whiteSpace=wrap;html=1;" vertex="1" parent="1">
          <mxGeometry x="1150" y="-555" width="120" height="60" as="geometry" />
        </mxCell>
        <mxCell id="7e2wv72_QCcMcx34yIYg-43" value="go to select&lt;br&gt;(继续监听)" style="rounded=0;whiteSpace=wrap;html=1;" vertex="1" parent="1">
          <mxGeometry x="980" y="1360" width="120" height="60" as="geometry" />
        </mxCell>
        <mxCell id="7e2wv72_QCcMcx34yIYg-46" value="" style="endArrow=classic;html=1;rounded=0;entryX=0;entryY=0.5;entryDx=0;entryDy=0;exitX=1;exitY=0.5;exitDx=0;exitDy=0;exitPerimeter=0;" edge="1" parent="1" source="Q8sorjnZ1c8knYW-6Pqp-9" target="Q8sorjnZ1c8knYW-6Pqp-27">
          <mxGeometry width="50" height="50" relative="1" as="geometry">
            <mxPoint x="210" y="670" as="sourcePoint" />
            <mxPoint x="260" y="620" as="targetPoint" />
          </mxGeometry>
        </mxCell>
        <mxCell id="7e2wv72_QCcMcx34yIYg-47" value="" style="endArrow=classic;html=1;rounded=0;entryX=0;entryY=0.5;entryDx=0;entryDy=0;exitX=1;exitY=0.5;exitDx=0;exitDy=0;exitPerimeter=0;" edge="1" parent="1" source="Q8sorjnZ1c8knYW-6Pqp-12" target="Q8sorjnZ1c8knYW-6Pqp-27">
          <mxGeometry width="50" height="50" relative="1" as="geometry">
            <mxPoint x="210" y="670" as="sourcePoint" />
            <mxPoint x="260" y="620" as="targetPoint" />
          </mxGeometry>
        </mxCell>
        <mxCell id="7e2wv72_QCcMcx34yIYg-48" value="" style="endArrow=classic;html=1;rounded=0;entryX=0;entryY=0.5;entryDx=0;entryDy=0;exitX=1;exitY=0.5;exitDx=0;exitDy=0;exitPerimeter=0;" edge="1" parent="1" source="Q8sorjnZ1c8knYW-6Pqp-13" target="Q8sorjnZ1c8knYW-6Pqp-27">
          <mxGeometry width="50" height="50" relative="1" as="geometry">
            <mxPoint x="210" y="670" as="sourcePoint" />
            <mxPoint x="260" y="620" as="targetPoint" />
          </mxGeometry>
        </mxCell>
        <mxCell id="7e2wv72_QCcMcx34yIYg-49" value="G2CServer.S2CChan" style="html=1;shadow=0;dashed=0;align=center;verticalAlign=middle;shape=mxgraph.arrows2.arrow;dy=0.6;dx=40;notch=0;" vertex="1" parent="1">
          <mxGeometry x="-663" y="790" width="250" height="70" as="geometry" />
        </mxCell>
        <mxCell id="7e2wv72_QCcMcx34yIYg-54" style="edgeStyle=orthogonalEdgeStyle;rounded=0;orthogonalLoop=1;jettySize=auto;html=1;exitX=0.5;exitY=1;exitDx=0;exitDy=0;entryX=0.5;entryY=0;entryDx=0;entryDy=0;" edge="1" parent="1" source="7e2wv72_QCcMcx34yIYg-52" target="7e2wv72_QCcMcx34yIYg-53">
          <mxGeometry relative="1" as="geometry" />
        </mxCell>
        <mxCell id="7e2wv72_QCcMcx34yIYg-52" value="S2CProcess&lt;br&gt;（系统消息处理）" style="rounded=0;whiteSpace=wrap;html=1;" vertex="1" parent="1">
          <mxGeometry x="962.5" y="1960" width="120" height="60" as="geometry" />
        </mxCell>
        <mxCell id="7e2wv72_QCcMcx34yIYg-55" style="edgeStyle=orthogonalEdgeStyle;rounded=0;orthogonalLoop=1;jettySize=auto;html=1;exitX=1;exitY=0.5;exitDx=0;exitDy=0;entryX=1;entryY=0.5;entryDx=0;entryDy=0;" edge="1" parent="1" source="7e2wv72_QCcMcx34yIYg-53" target="7e2wv72_QCcMcx34yIYg-52">
          <mxGeometry relative="1" as="geometry" />
        </mxCell>
        <mxCell id="7e2wv72_QCcMcx34yIYg-56" value="C2CProcessNumber" style="edgeLabel;html=1;align=center;verticalAlign=middle;resizable=0;points=[];" vertex="1" connectable="0" parent="7e2wv72_QCcMcx34yIYg-55">
          <mxGeometry x="-0.1432" y="1" relative="1" as="geometry">
            <mxPoint as="offset" />
          </mxGeometry>
        </mxCell>
        <mxCell id="7e2wv72_QCcMcx34yIYg-58" style="edgeStyle=orthogonalEdgeStyle;rounded=0;orthogonalLoop=1;jettySize=auto;html=1;exitX=0;exitY=0.5;exitDx=0;exitDy=0;entryX=0.5;entryY=0;entryDx=0;entryDy=0;" edge="1" parent="1" source="7e2wv72_QCcMcx34yIYg-53" target="7e2wv72_QCcMcx34yIYg-57">
          <mxGeometry relative="1" as="geometry" />
        </mxCell>
        <mxCell id="7e2wv72_QCcMcx34yIYg-59" value="go func" style="edgeLabel;html=1;align=center;verticalAlign=middle;resizable=0;points=[];" vertex="1" connectable="0" parent="7e2wv72_QCcMcx34yIYg-58">
          <mxGeometry x="-0.3024" y="2" relative="1" as="geometry">
            <mxPoint as="offset" />
          </mxGeometry>
        </mxCell>
        <mxCell id="7e2wv72_QCcMcx34yIYg-53" value="judge S2CProcessNumber" style="rhombus;whiteSpace=wrap;html=1;" vertex="1" parent="1">
          <mxGeometry x="927.5" y="2070" width="190" height="70" as="geometry" />
        </mxCell>
        <mxCell id="7e2wv72_QCcMcx34yIYg-61" value="" style="edgeStyle=orthogonalEdgeStyle;rounded=0;orthogonalLoop=1;jettySize=auto;html=1;" edge="1" parent="1" source="7e2wv72_QCcMcx34yIYg-57" target="7e2wv72_QCcMcx34yIYg-60">
          <mxGeometry relative="1" as="geometry" />
        </mxCell>
        <mxCell id="7e2wv72_QCcMcx34yIYg-62" value="case m := &amp;lt;-G2CServer.ExitChan" style="edgeLabel;html=1;align=center;verticalAlign=middle;resizable=0;points=[];" vertex="1" connectable="0" parent="7e2wv72_QCcMcx34yIYg-61">
          <mxGeometry x="-0.0927" y="1" relative="1" as="geometry">
            <mxPoint as="offset" />
          </mxGeometry>
        </mxCell>
        <mxCell id="7e2wv72_QCcMcx34yIYg-64" value="" style="edgeStyle=orthogonalEdgeStyle;rounded=0;orthogonalLoop=1;jettySize=auto;html=1;" edge="1" parent="1" source="7e2wv72_QCcMcx34yIYg-57" target="7e2wv72_QCcMcx34yIYg-63">
          <mxGeometry relative="1" as="geometry" />
        </mxCell>
        <mxCell id="7e2wv72_QCcMcx34yIYg-65" value="case m := &amp;lt;-G2CServer.S2CChan" style="edgeLabel;html=1;align=center;verticalAlign=middle;resizable=0;points=[];" vertex="1" connectable="0" parent="7e2wv72_QCcMcx34yIYg-64">
          <mxGeometry x="-0.1" relative="1" as="geometry">
            <mxPoint as="offset" />
          </mxGeometry>
        </mxCell>
        <mxCell id="7e2wv72_QCcMcx34yIYg-57" value="select" style="rhombus;whiteSpace=wrap;html=1;rounded=0;" vertex="1" parent="1">
          <mxGeometry x="797.5" y="2210" width="130" height="80" as="geometry" />
        </mxCell>
        <mxCell id="7e2wv72_QCcMcx34yIYg-60" value="return" style="whiteSpace=wrap;html=1;rounded=0;" vertex="1" parent="1">
          <mxGeometry x="1132.5" y="2220" width="120" height="60" as="geometry" />
        </mxCell>
        <mxCell id="7e2wv72_QCcMcx34yIYg-67" value="" style="edgeStyle=orthogonalEdgeStyle;rounded=0;orthogonalLoop=1;jettySize=auto;html=1;" edge="1" parent="1" source="7e2wv72_QCcMcx34yIYg-63" target="7e2wv72_QCcMcx34yIYg-66">
          <mxGeometry relative="1" as="geometry" />
        </mxCell>
        <mxCell id="7e2wv72_QCcMcx34yIYg-63" value="begin processS2Cmessage" style="whiteSpace=wrap;html=1;rounded=0;" vertex="1" parent="1">
          <mxGeometry x="802.5" y="2410" width="120" height="60" as="geometry" />
        </mxCell>
        <mxCell id="7e2wv72_QCcMcx34yIYg-70" value="" style="edgeStyle=orthogonalEdgeStyle;rounded=0;orthogonalLoop=1;jettySize=auto;html=1;" edge="1" parent="1" source="7e2wv72_QCcMcx34yIYg-66" target="7e2wv72_QCcMcx34yIYg-69">
          <mxGeometry relative="1" as="geometry" />
        </mxCell>
        <mxCell id="7e2wv72_QCcMcx34yIYg-66" value="message insert to mysql&amp;nbsp;" style="whiteSpace=wrap;html=1;rounded=0;" vertex="1" parent="1">
          <mxGeometry x="802.5" y="2540" width="120" height="60" as="geometry" />
        </mxCell>
        <mxCell id="7e2wv72_QCcMcx34yIYg-72" value="" style="edgeStyle=orthogonalEdgeStyle;rounded=0;orthogonalLoop=1;jettySize=auto;html=1;" edge="1" parent="1" source="7e2wv72_QCcMcx34yIYg-69" target="7e2wv72_QCcMcx34yIYg-71">
          <mxGeometry relative="1" as="geometry" />
        </mxCell>
        <mxCell id="7e2wv72_QCcMcx34yIYg-69" value="messageid insert to redis" style="whiteSpace=wrap;html=1;rounded=0;" vertex="1" parent="1">
          <mxGeometry x="802.5" y="2680" width="120" height="60" as="geometry" />
        </mxCell>
        <mxCell id="7e2wv72_QCcMcx34yIYg-74" value="" style="edgeStyle=orthogonalEdgeStyle;rounded=0;orthogonalLoop=1;jettySize=auto;html=1;" edge="1" parent="1" source="7e2wv72_QCcMcx34yIYg-71" target="7e2wv72_QCcMcx34yIYg-73">
          <mxGeometry relative="1" as="geometry" />
        </mxCell>
        <mxCell id="7e2wv72_QCcMcx34yIYg-71" value="messagebody insert to redis" style="whiteSpace=wrap;html=1;rounded=0;" vertex="1" parent="1">
          <mxGeometry x="802.5" y="2820" width="120" height="60" as="geometry" />
        </mxCell>
        <mxCell id="7e2wv72_QCcMcx34yIYg-76" style="edgeStyle=orthogonalEdgeStyle;rounded=0;orthogonalLoop=1;jettySize=auto;html=1;exitX=0.5;exitY=1;exitDx=0;exitDy=0;entryX=0.5;entryY=0;entryDx=0;entryDy=0;" edge="1" parent="1" source="7e2wv72_QCcMcx34yIYg-73" target="7e2wv72_QCcMcx34yIYg-75">
          <mxGeometry relative="1" as="geometry" />
        </mxCell>
        <mxCell id="7e2wv72_QCcMcx34yIYg-73" value="add to infousers&#39; inbox" style="whiteSpace=wrap;html=1;rounded=0;" vertex="1" parent="1">
          <mxGeometry x="802.5" y="2960" width="120" height="60" as="geometry" />
        </mxCell>
        <mxCell id="7e2wv72_QCcMcx34yIYg-75" value="get online users&lt;br&gt;downstream connector" style="whiteSpace=wrap;html=1;rounded=0;" vertex="1" parent="1">
          <mxGeometry x="802.5" y="3101" width="120" height="60" as="geometry" />
        </mxCell>
        <mxCell id="7e2wv72_QCcMcx34yIYg-77" value="" style="endArrow=classic;html=1;rounded=0;exitX=1;exitY=0.5;exitDx=0;exitDy=0;exitPerimeter=0;entryX=0;entryY=0.5;entryDx=0;entryDy=0;" edge="1" parent="1" source="7e2wv72_QCcMcx34yIYg-49" target="7e2wv72_QCcMcx34yIYg-57">
          <mxGeometry width="50" height="50" relative="1" as="geometry">
            <mxPoint x="570" y="900" as="sourcePoint" />
            <mxPoint x="620" y="850" as="targetPoint" />
          </mxGeometry>
        </mxCell>
        <mxCell id="7e2wv72_QCcMcx34yIYg-78" value="" style="endArrow=classic;html=1;rounded=0;exitX=1;exitY=0.5;exitDx=0;exitDy=0;exitPerimeter=0;entryX=0;entryY=0.5;entryDx=0;entryDy=0;" edge="1" parent="1" source="Q8sorjnZ1c8knYW-6Pqp-12" target="7e2wv72_QCcMcx34yIYg-57">
          <mxGeometry width="50" height="50" relative="1" as="geometry">
            <mxPoint x="570" y="1500" as="sourcePoint" />
            <mxPoint x="620" y="1450" as="targetPoint" />
          </mxGeometry>
        </mxCell>
        <mxCell id="7e2wv72_QCcMcx34yIYg-79" value="" style="endArrow=classic;html=1;rounded=0;exitX=1;exitY=0.5;exitDx=0;exitDy=0;entryX=0;entryY=0.75;entryDx=0;entryDy=0;" edge="1" parent="1" source="7e2wv72_QCcMcx34yIYg-66" target="Q8sorjnZ1c8knYW-6Pqp-46">
          <mxGeometry width="50" height="50" relative="1" as="geometry">
            <mxPoint x="1000" y="2590" as="sourcePoint" />
            <mxPoint x="1050" y="2540" as="targetPoint" />
          </mxGeometry>
        </mxCell>
        <mxCell id="7e2wv72_QCcMcx34yIYg-80" value="" style="endArrow=classic;html=1;rounded=0;exitX=1;exitY=0.5;exitDx=0;exitDy=0;entryX=0;entryY=0.25;entryDx=0;entryDy=0;" edge="1" parent="1" source="7e2wv72_QCcMcx34yIYg-69" target="Q8sorjnZ1c8knYW-6Pqp-48">
          <mxGeometry width="50" height="50" relative="1" as="geometry">
            <mxPoint x="1000" y="2590" as="sourcePoint" />
            <mxPoint x="1050" y="2540" as="targetPoint" />
          </mxGeometry>
        </mxCell>
        <mxCell id="7e2wv72_QCcMcx34yIYg-81" value="" style="endArrow=classic;html=1;rounded=0;exitX=1;exitY=0.5;exitDx=0;exitDy=0;entryX=0;entryY=0.25;entryDx=0;entryDy=0;" edge="1" parent="1" source="7e2wv72_QCcMcx34yIYg-71" target="Q8sorjnZ1c8knYW-6Pqp-54">
          <mxGeometry width="50" height="50" relative="1" as="geometry">
            <mxPoint x="1000" y="2590" as="sourcePoint" />
            <mxPoint x="2203" y="2320" as="targetPoint" />
          </mxGeometry>
        </mxCell>
        <mxCell id="7e2wv72_QCcMcx34yIYg-82" value="群聊消息" style="rounded=0;whiteSpace=wrap;html=1;" vertex="1" parent="1">
          <mxGeometry x="-1390" y="500" width="120" height="60" as="geometry" />
        </mxCell>
        <mxCell id="7e2wv72_QCcMcx34yIYg-83" value="" style="endArrow=classic;html=1;rounded=0;entryX=0;entryY=0.5;entryDx=0;entryDy=0;entryPerimeter=0;exitX=1;exitY=0.5;exitDx=0;exitDy=0;" edge="1" parent="1" source="7e2wv72_QCcMcx34yIYg-82" target="7e2wv72_QCcMcx34yIYg-49">
          <mxGeometry width="50" height="50" relative="1" as="geometry">
            <mxPoint x="-760" y="670" as="sourcePoint" />
            <mxPoint x="-710" y="620" as="targetPoint" />
          </mxGeometry>
        </mxCell>
      </root>
    </mxGraphModel>
  </diagram>
</mxfile>
